<svg width="81" height="81" viewBox="0 0 81 81" fill="none" xmlns="http://www.w3.org/2000/svg">
<path d="M12.9081 0.735397L0.547485 13.096V68.3749L12.9083 80.7354H68.1865L80.5475 68.3749V13.096L68.187 0.735397H12.9081ZM34.8385 62.8629H23.775C23.775 53.7114 16.331 46.2674 7.17958 46.2674V35.2034C16.331 35.2034 23.775 27.7595 23.775 18.6081H34.8385C34.8385 27.6875 30.3817 35.6894 23.6039 40.7354C30.3817 45.7819 34.8385 53.7834 34.8385 62.8629ZM73.881 46.2674C64.7295 46.2674 57.2855 53.7114 57.2855 62.8629H46.2215C46.2215 53.7834 50.679 45.7819 57.4565 40.7354C50.679 35.6894 46.2215 27.6875 46.2215 18.6081H57.2855C57.2855 27.7595 64.7295 35.2034 73.881 35.2034V46.2674Z" fill="#2EA967"/>
</svg>
