<svg width="85" height="48" viewBox="0 0 85 48" fill="none" xmlns="http://www.w3.org/2000/svg">
<rect y="0.607422" width="84.5237" height="47" rx="8" fill="#5865F2"/>
<path d="M14.9058 34.6074V13.4738H24.2475C25.9627 13.4738 27.341 13.9638 28.3824 14.9439C29.4441 15.9241 29.975 17.2207 29.975 18.8338C29.975 20.0997 29.6688 21.1207 29.0562 21.8966C28.464 22.6521 27.6779 23.2034 26.6978 23.5505C27.9434 23.816 28.9235 24.3775 29.6381 25.2351C30.3732 26.0723 30.7408 27.2464 30.7408 28.7574C30.7408 30.7176 30.1486 32.1878 28.9643 33.1679C27.78 34.1276 26.1056 34.6074 23.9412 34.6074H14.9058ZM22.6548 21.9272C24.5946 21.9272 25.5645 21.1513 25.5645 19.5995C25.5645 18.0476 24.5946 17.2717 22.6548 17.2717H19.3776V21.9272H22.6548ZM22.8692 30.8095C25.1357 30.8095 26.269 29.9621 26.269 28.2673C26.269 26.5726 25.1357 25.7252 22.8692 25.7252H19.3776V30.8095H22.8692ZM42.3896 35.0362C40.4702 35.0362 38.7755 34.5972 37.3053 33.7192C35.8351 32.8412 34.6917 31.5752 33.8749 29.9213C33.0581 28.2469 32.6498 26.2867 32.6498 24.0406C32.6498 21.7945 33.0581 19.8445 33.8749 18.1906C34.6917 16.5162 35.8351 15.24 37.3053 14.362C38.7755 13.484 40.4702 13.045 42.3896 13.045C44.309 13.045 46.0038 13.484 47.474 14.362C48.9441 15.24 50.0876 16.5162 50.9043 18.1906C51.7211 19.8445 52.1295 21.7945 52.1295 24.0406C52.1295 26.2867 51.7211 28.2469 50.9043 29.9213C50.0876 31.5752 48.9441 32.8412 47.474 33.7192C46.0038 34.5972 44.309 35.0362 42.3896 35.0362ZM42.3896 30.9933C44.1048 30.9933 45.4116 30.4011 46.3101 29.2168C47.2085 28.0121 47.6577 26.2867 47.6577 24.0406C47.6577 21.7945 47.2085 20.0793 46.3101 18.895C45.4116 17.6903 44.1048 17.0879 42.3896 17.0879C40.6744 17.0879 39.3676 17.6903 38.4692 18.895C37.5707 20.0793 37.1215 21.7945 37.1215 24.0406C37.1215 26.2867 37.5707 28.0121 38.4692 29.2168C39.3676 30.4011 40.6744 30.9933 42.3896 30.9933ZM64.0593 34.6074H59.5875V17.5167H53.4618V13.4738H70.185V17.5167H64.0593V34.6074Z" fill="white"/>
</svg>
