<svg width="81" height="76" viewBox="0 0 81 76" fill="none" xmlns="http://www.w3.org/2000/svg">
<path d="M58.9025 2.42215C58.9025 2.42215 89.6647 23.46 77.8428 52.951C66.021 82.4421 42.9493 74.2431 51.7204 65.5356C60.4914 56.8281 41.4875 51.1714 29.4114 39.858L58.9025 2.42215Z" fill="#FFEAC0"/>
<mask id="mask0_26_747" style="mask-type:alpha" maskUnits="userSpaceOnUse" x="0" y="0" width="64" height="76">
<path d="M57.1225 31.4051C50.7031 39.6041 41.4872 43.7354 34.3051 42.21L9.70798 73.7349C7.92835 76.023 4.81399 76.2773 2.52589 74.4976C0.237787 72.718 -0.0164467 69.6036 1.50895 67.3155L26.106 36.0448C22.801 29.6254 24.5806 19.6468 31.2543 11.1935C39.4533 0.897066 51.7201 -2.91643 58.9021 2.42247C66.0842 7.76137 65.0673 20.9179 57.1225 31.4051Z" fill="#FFD56C"/>
</mask>
<g mask="url(#mask0_26_747)">
<path d="M0.547485 0.0158186H63.8806V76.6822H0.547485V0.0158186Z" fill="#FFD56C"/>
<path d="M43.2344 -1.91302L46.196 -1.52285L40.2362 43.7161L37.2745 43.3259L43.2344 -1.91302Z" fill="white"/>
<path d="M48.1027 -2.11902L54.5931 -1.26396L48.7418 43.1516L42.2513 42.2965L48.1027 -2.11902Z" fill="white"/>
</g>
</svg>
