<svg width="81" height="76" viewBox="0 0 81 76" fill="none" xmlns="http://www.w3.org/2000/svg">
<path d="M57.0108 31.41C50.5405 39.6449 41.4105 43.7624 34.352 42.2791L33.4397 43.4414L9.72391 73.6587C9.30944 74.1881 8.79467 74.6306 8.20905 74.9608C7.62343 75.2911 6.97844 75.5026 6.31099 75.5834C5.64353 75.6641 4.9667 75.6125 4.31922 75.4315C3.67173 75.2504 3.06629 74.9435 2.53752 74.5283C2.00257 74.1154 1.55471 73.6007 1.21982 73.0138C0.884934 72.4269 0.669659 71.7795 0.586431 71.1089C0.503204 70.4383 0.553673 69.7579 0.734924 69.1069C0.916174 68.456 1.22461 67.8474 1.64242 67.3163L26.1426 35.9878C22.8947 29.4919 24.6849 19.5435 31.2575 11.2319C39.4157 0.899832 51.7168 -2.96155 58.852 2.61365C65.9873 8.18885 65.1179 21.078 57.0108 31.41Z" fill="#B4E1CE"/>
<path d="M77.9049 52.9695C89.5668 23.559 58.852 2.61365 58.852 2.61365C65.9873 8.18885 65.1179 21.078 57.0108 31.41C50.5405 39.6449 41.4105 43.7624 34.352 42.2791L33.4397 43.4414C45.1954 52.4764 59.4644 57.9497 51.7168 65.6287C43.0471 74.2217 66.243 82.3799 77.9049 52.9695Z" fill="#3BA561"/>
</svg>
