<svg width="81" height="79" viewBox="0 0 81 79" fill="none" xmlns="http://www.w3.org/2000/svg">
<path d="M13.531 13.8479C13.531 13.8479 14.5138 12.4413 14.9215 11.8182C15.3291 11.1951 13.8662 9.72295 13.2986 9.25653C12.731 8.79011 11.8357 9.02332 11.8357 9.02332C4.69285 12.0514 1.1195 18.2643 0.631877 19.5069C0.144256 20.7494 1.87379 22.105 3.14998 22.7682C3.73665 23.0742 4.66999 22.3965 5.24523 21.8936L5.43952 21.7041L5.74047 21.4126L5.74428 21.409L25.1768 39.9237L32.712 32.716L13.5043 13.8734L13.531 13.8479Z" fill="#5865F2"/>
<path d="M59.4384 33.3787L60.4631 32.4459L69.6708 41.1694C69.7356 41.224 69.8042 41.2459 69.8651 41.2459C70.0403 41.2459 70.1851 41.0929 70.1851 41.0929C70.1851 41.0929 80.3794 31.4183 80.4137 31.3855C80.7147 31.1013 80.4137 30.9446 80.4137 30.9446L72.5508 23.3725L72.5394 23.3835L71.4613 22.3741L72.0632 21.8202L73.3508 21.9623L73.107 20.3299L73.4308 20.0165L72.947 17.6625C71.267 15.3851 66.6651 11.7375 66.6651 11.7375L64.2575 11.3221L64.0136 11.6319L62.2003 11.3731L62.3755 12.8526L62.4898 12.9619L61.9527 13.4793L58.9812 10.699C58.9812 10.699 41.7393 1.74229 40.8212 1.32689C40.3031 1.09732 39.9221 0.944275 39.5564 0.944275C39.2745 0.944275 39.0002 1.03537 38.684 1.25036C37.9526 1.74229 38.383 2.73343 38.383 2.73343L49.1031 21.6818L51.2479 23.7151L50.3298 24.5932L48.6155 24.3673L48.8783 25.9925L48.3831 26.4662L48.2955 26.3824C48.2155 26.3059 48.105 26.2658 47.9983 26.2658C47.8917 26.2658 47.785 26.3059 47.7012 26.3824C47.5374 26.5391 47.5374 26.7942 47.7012 26.9509L47.7888 27.0347L47.5526 27.2642L47.4917 27.2023C47.4079 27.1258 47.3012 27.0857 47.1945 27.0857C47.084 27.0857 46.9774 27.1258 46.8974 27.2023C46.7336 27.359 46.7336 27.614 46.8974 27.7707L46.9621 27.8327L42.4516 32.1689L42.3488 32.0705C42.265 31.994 42.1583 31.9539 42.0516 31.9539C41.945 31.9539 41.8383 31.994 41.7545 32.0705C41.5907 32.2272 41.5907 32.4823 41.7545 32.639L41.8612 32.7374L41.6212 32.967L41.5412 32.8941C41.4612 32.8139 41.3507 32.7738 41.2478 32.7738C41.1373 32.7738 41.0307 32.8139 40.9469 32.8941C40.7869 33.0508 40.7869 33.3022 40.9469 33.4589L41.0269 33.5354L40.4402 34.1038L40.3602 34.8253L40.6688 35.1278L40.6612 35.1314L40.2878 35.4958L15.9487 58.7731L15.6325 58.5217L14.6229 58.6602L14.0515 59.214L14.0134 59.1776C13.9296 59.0974 13.8229 59.0573 13.7163 59.0573C13.6096 59.0573 13.4991 59.0974 13.4191 59.1776C13.2553 59.3343 13.2553 59.5857 13.4191 59.7424L13.4648 59.7861L13.2286 60.0193L13.2058 59.9975C13.1258 59.9173 13.0153 59.8772 12.9086 59.8772C12.802 59.8772 12.6953 59.9173 12.6115 59.9975C12.4515 60.1542 12.4515 60.4056 12.6115 60.5623L12.6382 60.5914L8.18481 64.924L8.09338 64.8366C8.00957 64.7564 7.90671 64.72 7.79623 64.72C7.68957 64.72 7.5829 64.7564 7.49909 64.8366C7.33528 64.9933 7.33528 65.2483 7.49909 65.405L7.59814 65.4961L7.36195 65.7257L7.28956 65.6565C7.20575 65.5799 7.09909 65.5399 6.98861 65.5399C6.88575 65.5399 6.77528 65.5799 6.69528 65.6565C6.53147 65.8132 6.53147 66.0682 6.69528 66.2249L6.77147 66.3014L6.44004 66.6257L4.71431 66.3306L4.84384 68.1744L4.29907 68.7064L4.77146 71.1916C4.77146 71.1916 5.49527 73.356 6.9848 74.7917C8.42862 76.1837 10.6305 76.8506 10.7258 76.9198L13.2134 77.3352L13.8267 76.7595L15.541 77.0255L15.2591 75.4039L15.781 74.9156L16.021 75.1452C16.101 75.2217 16.2077 75.2618 16.3144 75.2618C16.421 75.2618 16.5315 75.2217 16.6115 75.1452C16.7753 74.9849 16.7753 74.7334 16.6115 74.5768L16.3753 74.3508L16.6191 74.1249L16.8248 74.3217C16.9048 74.4018 17.0153 74.4419 17.122 74.4419C17.2287 74.4419 17.3353 74.4018 17.4191 74.3217C17.5829 74.165 17.5829 73.9136 17.4191 73.7569L17.2172 73.5601L21.7392 69.2931L21.9373 69.4826C22.0173 69.5627 22.1277 69.5992 22.2344 69.5992C22.3411 69.5992 22.4477 69.5627 22.5315 69.4826C22.6915 69.3259 22.6915 69.0708 22.5315 68.9141L22.3373 68.7319L22.5773 68.5024L22.7449 68.6627C22.8249 68.7392 22.9315 68.7793 23.0382 68.7793C23.1487 68.7793 23.2554 68.7392 23.3354 68.6627C23.4992 68.506 23.4992 68.2509 23.3354 68.0942L23.1715 67.9376L23.6782 67.4638L23.8611 66.4253L23.5906 66.1666L23.5944 66.163L24.0858 65.6965L48.2612 42.565L48.2498 42.5431L48.7221 43.0096L49.4802 42.9294L50.1622 42.2735L50.2726 42.3792C50.3564 42.4557 50.4631 42.4958 50.5698 42.4958C50.6764 42.4958 50.7869 42.4557 50.8669 42.3792C51.0307 42.2225 51.0307 41.9674 50.8669 41.8107L50.7564 41.705L50.9964 41.4791L51.0802 41.5593C51.1603 41.6358 51.2669 41.6759 51.3774 41.6759C51.4841 41.6759 51.5907 41.6358 51.6707 41.5593C51.8345 41.4026 51.8345 41.1475 51.6707 40.9908L51.5869 40.907L56.105 36.5781L56.2231 36.691C56.3031 36.7675 56.4098 36.8076 56.5165 36.8076C56.6269 36.8076 56.7336 36.7675 56.8136 36.691C56.9774 36.5343 56.9774 36.2793 56.8136 36.1226L56.6955 36.0096L56.9355 35.78L57.0269 35.8711C57.1108 35.9477 57.2174 35.9878 57.3241 35.9878C57.4308 35.9878 57.5374 35.9477 57.6212 35.8711C57.785 35.7108 57.785 35.4594 57.6212 35.3027L57.5298 35.2116L58.0327 34.7306L59.7127 34.982L59.4384 33.3787Z" fill="#5865F2"/>
<path d="M62.7959 59.5235L52.0797 51.7547L50.1711 49.8745L42.7768 56.9473L44.6358 58.6453L51.6187 68.6625L61.0359 78.5265L71.8893 68.841L62.7959 59.5235Z" fill="#5865F2"/>
</svg>
