<svg width="81" height="70" viewBox="0 0 81 70" fill="none" xmlns="http://www.w3.org/2000/svg">
<path d="M79.0981 32.3197L61.8661 2.56629L60.4569 0.150589H20.5576L19.1484 2.56629L1.95665 32.3197L0.547485 34.7354L1.95665 37.1511L19.1484 66.9045L20.5576 69.3202H60.4972L61.9063 66.9045L79.1383 37.1511L80.5475 34.7354L79.0981 32.3197ZM26.476 28.1727L19.9134 34.7354L26.476 41.298V52.2895L8.92192 34.7354L26.5163 17.141V28.1727H26.476ZM39.0377 56.0741L30.8243 53.5376L43.3054 13.3564L51.5188 15.9332L39.0377 56.0741ZM54.5787 52.3298V41.3383L61.1413 34.7354L54.5787 28.1727V17.141L72.1328 34.7354L54.5787 52.3298Z" fill="#3E70DD"/>
</svg>
