<svg width="81" height="57" viewBox="0 0 81 57" fill="none" xmlns="http://www.w3.org/2000/svg">
<path d="M54.6682 41.3531H50.4187C47.9665 41.3195 45.6277 40.3149 43.9152 38.5595C42.2027 36.804 41.2563 34.4411 41.2835 31.9889V27.6121C41.2767 27.1275 41.3655 26.6464 41.5448 26.1962C41.724 25.7459 41.9902 25.3354 42.3281 24.9881C42.666 24.6407 43.069 24.3633 43.5141 24.1717C43.9592 23.9802 44.4377 23.8781 44.9223 23.8715H64.974V18.655H29.3492C26.1175 25.9326 22.8095 33.4902 21.7153 36.4674C21.0352 38.1907 19.8552 39.6712 18.3271 40.7187C16.799 41.7662 14.9925 42.3327 13.1399 42.3455V45.4754C15.9748 48.2342 19.7698 49.7851 23.7255 49.8012H55.737C58.1847 49.7945 60.5303 48.8192 62.2611 47.0884C63.9919 45.3576 64.9672 43.012 64.974 40.5642V39.9026C63.5391 40.849 61.858 41.3533 60.1392 41.3531H54.6682ZM33.217 34.2281C32.5887 34.2278 31.9747 34.0399 31.4539 33.6885C30.933 33.337 30.5289 32.8381 30.2934 32.2556C30.0579 31.6731 30.0016 31.0335 30.1318 30.4188C30.2621 29.8041 30.5728 29.2423 31.0244 28.8054C31.4759 28.3684 32.0476 28.0762 32.6662 27.9662C33.2848 27.8562 33.9222 27.9334 34.4967 28.1879C35.0712 28.4424 35.5566 28.8626 35.8908 29.3947C36.2249 29.9268 36.3926 30.5466 36.3723 31.1746C36.3459 31.9937 36.0018 32.7703 35.4129 33.3402C34.824 33.9101 34.0365 34.2286 33.217 34.2281Z" fill="#AABFF2"/>
<path d="M33.2171 27.9169C32.3803 27.9169 31.5777 28.2494 30.9859 28.8411C30.3942 29.4328 30.0618 30.2354 30.0618 31.0723C30.0618 31.9091 30.3942 32.7117 30.9859 33.3034C31.5777 33.8952 32.3803 34.2276 33.2171 34.2276C34.054 34.2276 34.8565 33.8952 35.4483 33.3034C36.04 32.7117 36.3724 31.9091 36.3724 31.0723C36.3724 30.2354 36.04 29.4328 35.4483 28.8411C34.8565 28.2494 34.054 27.9169 33.2171 27.9169Z" fill="black"/>
<path d="M65.61 23.8713H44.9222C44.4377 23.878 43.9592 23.98 43.5141 24.1716C43.0689 24.3631 42.6659 24.6405 42.328 24.9879C41.9901 25.3352 41.7239 25.7458 41.5447 26.196C41.3655 26.6462 41.2767 27.1274 41.2834 27.6119V31.9887C41.2562 34.4409 42.2027 36.8039 43.9152 38.5593C45.6277 40.3147 47.9665 41.3194 50.4186 41.3529H60.1391C61.8579 41.3532 63.539 40.8488 64.9739 39.9025C65.0641 39.8611 65.1494 39.8099 65.2283 39.7498C66.4647 38.8942 67.4774 37.7543 68.1815 36.4258C68.8856 35.0974 69.2603 33.6193 69.2743 32.1159V27.6119C69.2811 26.631 68.8997 25.6871 68.2132 24.9863C67.5267 24.2856 66.5909 23.8847 65.61 23.8713ZM56.5512 37.2815H52.4543C52.2355 37.3097 52.0133 37.2909 51.8023 37.2264C51.5914 37.162 51.3966 37.0533 51.2309 36.9076C51.0653 36.7619 50.9326 36.5826 50.8417 36.3816C50.7508 36.1806 50.7038 35.9626 50.7038 35.742C50.7038 35.5214 50.7508 35.3034 50.8417 35.1024C50.9326 34.9014 51.0653 34.7221 51.2309 34.5764C51.3966 34.4307 51.5914 34.322 51.8023 34.2576C52.0133 34.1931 52.2355 34.1743 52.4543 34.2025H56.5512C56.7699 34.1743 56.9922 34.1931 57.2032 34.2576C57.4141 34.322 57.6089 34.4307 57.7746 34.5764C57.9402 34.7221 58.0729 34.9014 58.1638 35.1024C58.2547 35.3034 58.3017 35.5214 58.3017 35.742C58.3017 35.9626 58.2547 36.1806 58.1638 36.3816C58.0729 36.5826 57.9402 36.7619 57.7746 36.9076C57.6089 37.0533 57.4141 37.162 57.2032 37.2264C56.9922 37.2909 56.7699 37.3097 56.5512 37.2815ZM63.8034 37.2815H62.1494C61.9306 37.3097 61.7083 37.2909 61.4973 37.2264C61.2864 37.162 61.0916 37.0533 60.9259 36.9076C60.7603 36.7619 60.6276 36.5826 60.5367 36.3816C60.4458 36.1806 60.3988 35.9626 60.3988 35.742C60.3988 35.5214 60.4458 35.3034 60.5367 35.1024C60.6276 34.9014 60.7603 34.7221 60.9259 34.5764C61.0916 34.4307 61.2864 34.322 61.4973 34.2576C61.7083 34.1931 61.9306 34.1743 62.1494 34.2025H63.7016C64.0758 34.2507 64.4197 34.4336 64.6688 34.7169C64.918 35.0003 65.0555 35.3647 65.0555 35.742C65.0555 36.1193 64.918 36.4837 64.6688 36.7671C64.4197 37.0504 64.0758 37.2333 63.7016 37.2815H63.8034Z" fill="#CBDAF7"/>
<path d="M56.551 34.2028H52.4542C52.2354 34.1746 52.0131 34.1934 51.8022 34.2579C51.5912 34.3223 51.3964 34.431 51.2308 34.5767C51.0651 34.7224 50.9324 34.9017 50.8415 35.1027C50.7506 35.3037 50.7036 35.5217 50.7036 35.7423C50.7036 35.9629 50.7506 36.1809 50.8415 36.3819C50.9324 36.5829 51.0651 36.7622 51.2308 36.9079C51.3964 37.0536 51.5912 37.1623 51.8022 37.2267C52.0131 37.2912 52.2354 37.31 52.4542 37.2818H56.551C56.7698 37.31 56.9921 37.2912 57.203 37.2267C57.414 37.1623 57.6088 37.0536 57.7744 36.9079C57.9401 36.7622 58.0728 36.5829 58.1637 36.3819C58.2546 36.1809 58.3016 35.9629 58.3016 35.7423C58.3016 35.5217 58.2546 35.3037 58.1637 35.1027C58.0728 34.9017 57.9401 34.7224 57.7744 34.5767C57.6088 34.431 57.414 34.3223 57.203 34.2579C56.9921 34.1934 56.7698 34.1746 56.551 34.2028ZM63.7014 34.2028H62.1492C61.9304 34.1746 61.7081 34.1934 61.4972 34.2579C61.2862 34.3223 61.0914 34.431 60.9258 34.5767C60.7602 34.7224 60.6275 34.9017 60.5366 35.1027C60.4457 35.3037 60.3986 35.5217 60.3986 35.7423C60.3986 35.9629 60.4457 36.1809 60.5366 36.3819C60.6275 36.5829 60.7602 36.7622 60.9258 36.9079C61.0914 37.0536 61.2862 37.1623 61.4972 37.2267C61.7081 37.2912 61.9304 37.31 62.1492 37.2818H63.7014C64.0757 37.2336 64.4195 37.0507 64.6687 36.7674C64.9179 36.484 65.0553 36.1196 65.0553 35.7423C65.0553 35.365 64.9179 35.0006 64.6687 34.7172C64.4195 34.4339 64.0757 34.251 63.7014 34.2028Z" fill="#AABFF2"/>
<path d="M6.24329 39.7501C5.85688 39.5717 5.48283 39.3677 5.12366 39.1393V53.8473L9.06783 56.6209L13.012 53.8473V42.2692C10.5133 42.346 8.08378 41.4418 6.24329 39.7501Z" fill="#EF8843"/>
<path d="M19.1204 34.7624C18.6367 35.964 17.9134 37.0546 16.9946 37.9677C16.0758 38.8808 14.9806 39.5972 13.776 40.0734C12.5713 40.5495 11.2823 40.7754 9.98749 40.7373C8.69268 40.6992 7.4192 40.3978 6.24463 39.8516C8.08112 41.5526 10.5111 42.4661 13.0133 42.3962C14.866 42.3835 16.6724 41.8169 18.2005 40.7695C19.7287 39.722 20.9086 38.2415 21.5887 36.5181C22.7338 33.6173 26.0418 26.0597 29.2226 18.7057H26.0164C26.0164 18.7057 21.5887 28.4771 19.1204 34.7624Z" fill="#D0D9EA"/>
<path d="M37.3651 0.639275L39.5281 0.817399L37.3651 0.639275ZM29.375 0.919184C30.9543 0.733435 32.5432 0.639973 34.1334 0.639275C32.5432 0.639973 30.9543 0.733435 29.375 0.919184ZM56.119 11.5812C59.1834 11.6469 62.2379 11.9531 65.2542 12.4972C63.244 10.1307 55.5338 2.31873 39.5281 0.919184C51.1061 3.69283 55.3811 10.2834 56.119 11.5812ZM19.1201 34.7627C21.5884 28.4775 26.0161 18.6552 26.0161 18.6552C26.0161 18.6552 33.8535 12.7263 49.961 11.7084C44.3628 4.07452 35.1258 1.52989 29.4004 0.919184C9.75591 3.03123 0.5698 17.9427 0.5698 29.8516C0.450865 31.6628 0.808858 33.4736 1.60808 35.1033C2.40729 36.7329 3.6198 38.1246 5.12468 39.1395C6.3027 39.8893 7.63021 40.3729 9.0145 40.5565C10.3988 40.7402 11.8065 40.6193 13.1392 40.2025C14.472 39.7858 15.6977 39.083 16.7307 38.1435C17.7637 37.2039 18.5792 36.0501 19.1201 34.7627ZM2.52916 27.536C2.6216 25.6371 3.45347 23.8497 4.84681 22.5562C6.24016 21.2627 8.08436 20.5658 9.98492 20.6146C11.8429 21.0239 13.4656 22.1469 14.5033 23.7415C15.541 25.3361 15.9105 27.2746 15.5322 29.1391C15.4529 31.0201 14.6426 32.7958 13.2739 34.0885C11.9052 35.3812 10.0861 36.0887 8.20368 36.0605C7.27047 35.8751 6.38305 35.5073 5.59234 34.9781C4.80163 34.4489 4.12319 33.7688 3.59597 32.9768C3.06875 32.1848 2.70311 31.2964 2.52004 30.3628C2.33697 29.4291 2.34007 28.4685 2.52916 27.536Z" fill="#EBEFF7"/>
<path d="M49.9104 11.7082C51.0809 11.7082 52.2769 11.7082 53.5238 11.5555H56.0684C55.3304 10.2578 50.9791 3.66717 39.4774 0.893524L37.3654 0.639061H34.1337C32.5435 0.639759 30.9546 0.733221 29.3752 0.91897C35.0752 1.60602 44.3122 3.94708 49.9104 11.7082Z" fill="#FC964B"/>
<path d="M53.5235 11.5551C52.2766 11.5551 50.9789 11.5551 49.9101 11.7078C33.8026 12.7256 26.0161 18.6546 26.0161 18.6546H80.5475C76.0345 15.3912 70.7939 13.2775 65.2797 12.4966C62.2633 11.9525 59.2088 11.6462 56.1445 11.5806L53.5235 11.5551ZM8.20369 36.0599C10.0861 36.0881 11.9052 35.3806 13.2739 34.0879C14.6427 32.7952 15.4529 31.0195 15.5322 29.1385C15.9105 27.274 15.541 25.3355 14.5033 23.7408C13.4656 22.1462 11.8429 21.0233 9.98493 20.614C8.08437 20.5652 6.24017 21.2621 4.84682 22.5556C3.45347 23.8491 2.62161 25.6364 2.52917 27.5354C2.34008 28.4678 2.33698 29.4285 2.52005 30.3621C2.70312 31.2958 3.06875 32.1842 3.59598 32.9762C4.1232 33.7682 4.80163 34.4483 5.59234 34.9775C6.38305 35.5067 7.27048 35.8745 8.20369 36.0599ZM3.72515 27.8153C3.75445 27.1779 3.90963 26.5526 4.18175 25.9754C4.45387 25.3983 4.83754 24.8807 5.31064 24.4526C5.78374 24.0244 6.33691 23.6942 6.93826 23.4808C7.53961 23.2675 8.17725 23.1753 8.8144 23.2095C10.0262 23.5121 11.0739 24.2718 11.738 25.3296C12.402 26.3874 12.631 27.6612 12.3769 28.884C12.3174 30.1463 11.7635 31.3344 10.835 32.1915C9.90641 33.0486 8.67783 33.5059 7.41486 33.4644C6.18154 33.1954 5.10342 32.4523 4.41314 31.3954C3.72285 30.3386 3.47575 29.0527 3.72515 27.8153Z" fill="#647096"/>
<path d="M7.41539 33.4649C8.67836 33.5064 9.90694 33.0492 10.8355 32.1921C11.764 31.335 12.3179 30.1468 12.3774 28.8846C12.6274 27.644 12.381 26.3549 11.6912 25.2939C11.0013 24.233 9.923 23.4848 8.6877 23.21C7.42231 23.1753 6.19377 23.6383 5.26599 24.4995C4.3382 25.3607 3.78516 26.5514 3.72568 27.8158C3.47628 29.0533 3.72339 30.3391 4.41367 31.396C5.10395 32.4528 6.18207 33.1959 7.41539 33.4649Z" fill="#FC964B"/>
</svg>
