<svg width="80" height="80" viewBox="0 0 80 80" fill="none" xmlns="http://www.w3.org/2000/svg">
<path d="M79.7287 39.3137L40.6863 0.271342C40.5103 0.0974891 40.2728 0 40.0254 0C39.778 0 39.5406 0.0974891 39.3645 0.271342L0.271342 39.3137C0.0974891 39.4897 0 39.7272 0 39.9746C0 40.222 0.0974891 40.4594 0.271342 40.6355L39.3137 79.7287C39.4897 79.9025 39.7272 80 39.9746 80C40.222 80 40.4594 79.9025 40.6355 79.7287L79.7287 40.6863C79.9025 40.5103 80 40.2728 80 40.0254C80 39.778 79.9025 39.5406 79.7287 39.3645V39.3137ZM62.8764 30.5698L55.2509 45.287C55.2001 45.4221 55.2035 45.5715 55.2603 45.7042C55.3172 45.8368 55.4231 45.9423 55.5559 45.9987H60.36C60.4293 46.0048 60.4966 46.0251 60.5578 46.0583C60.619 46.0916 60.6726 46.137 60.7155 46.1918C60.7584 46.2466 60.7896 46.3096 60.8072 46.377C60.8247 46.4443 60.8282 46.5145 60.8175 46.5833C60.8185 46.6525 60.8029 46.721 60.7719 46.7829C60.741 46.8449 60.6956 46.8984 60.6396 46.9392L40.5084 61.4784C40.4142 61.5274 40.3095 61.553 40.2033 61.553C40.0972 61.553 39.9925 61.5274 39.8983 61.4784L19.6654 46.9646C19.5689 46.8611 19.5153 46.7248 19.5153 46.5833C19.5153 46.4418 19.5689 46.3056 19.6654 46.202C19.7541 46.1095 19.8698 46.0472 19.9959 46.0241H24.4949C24.6432 46.0241 24.7854 45.9652 24.8903 45.8603C24.9952 45.7555 25.0541 45.6132 25.0541 45.4649V45.287L17.4286 30.5698C17.3667 30.4381 17.3586 30.2873 17.4061 30.1497C17.4535 30.012 17.5528 29.8983 17.6828 29.8327C17.7387 29.8075 17.7994 29.7944 17.8607 29.7944C17.9221 29.7944 17.9828 29.8075 18.0387 29.8327L36.1364 41.703C36.4677 41.8822 36.7277 42.1692 36.8736 42.5164L39.6441 48.0576C39.6713 48.1171 39.7102 48.1704 39.7586 48.2144C39.807 48.2584 39.8638 48.2921 39.9256 48.3135C39.9874 48.3349 40.0529 48.3435 40.1181 48.3389C40.1833 48.3342 40.2469 48.3163 40.305 48.2863C40.4116 48.2385 40.5004 48.1585 40.5592 48.0576L43.2281 42.5418C43.4116 42.2202 43.6632 41.9426 43.9652 41.7284L62.063 29.8327C62.1264 29.8026 62.1951 29.7853 62.2652 29.7817C62.3354 29.7782 62.4055 29.7886 62.4716 29.8122C62.5377 29.8358 62.5985 29.8722 62.6505 29.9193C62.7025 29.9665 62.7447 30.0234 62.7747 30.0869C62.8313 30.1521 62.8703 30.2307 62.8881 30.3152C62.9059 30.3997 62.9018 30.4873 62.8764 30.5698Z" fill="#45DDC0"/>
</svg>
