<svg width="81" height="76" viewBox="0 0 81 76" fill="none" xmlns="http://www.w3.org/2000/svg">
<path d="M78.9125 19.919L47.4348 40.5809C46.8945 40.9332 46.4569 41.4221 46.1667 41.9982L41.368 51.6205C41.2984 51.7802 41.1836 51.9161 41.0379 52.0116C40.8921 52.107 40.7217 52.1579 40.5475 52.1579C40.3733 52.1579 40.2028 52.107 40.0571 52.0116C39.9113 51.9161 39.7966 51.7802 39.727 51.6205L34.9282 41.9982C34.638 41.4221 34.2005 40.9332 33.6602 40.5809L2.18252 19.919C2.02425 19.7311 1.79781 19.6137 1.55301 19.5927C1.30821 19.5718 1.0651 19.6489 0.877164 19.8071C0.689226 19.9654 0.571855 20.1918 0.550872 20.4366C0.529889 20.6815 0.607013 20.9246 0.765276 21.1125L13.9183 46.6974C13.9822 46.8314 14.0137 46.9785 14.0102 47.1269C14.0067 47.2753 13.9682 47.4207 13.898 47.5515C13.8278 47.6822 13.7277 47.7946 13.606 47.8795C13.4842 47.9644 13.3442 48.0194 13.1972 48.0401H5.2905C5.09525 48.0383 4.90449 48.0986 4.74581 48.2124C4.58713 48.3262 4.46877 48.4875 4.40785 48.673C4.34694 48.8585 4.34663 49.0586 4.40697 49.2443C4.46731 49.43 4.58517 49.5917 4.7435 49.706L40.0005 74.9677C40.1616 75.0778 40.3523 75.1367 40.5475 75.1367C40.7427 75.1367 40.9333 75.0778 41.0945 74.9677L76.3515 49.706C76.5098 49.5917 76.6277 49.43 76.688 49.2443C76.7483 49.0586 76.748 48.8585 76.6871 48.673C76.6262 48.4875 76.5078 48.3262 76.3492 48.2124C76.1905 48.0986 75.9997 48.0383 75.8045 48.0401H67.8978C67.7421 48.0341 67.5904 47.9898 67.4561 47.911C67.3217 47.8323 67.2089 47.7215 67.1277 47.5886C67.0465 47.4557 66.9994 47.3048 66.9906 47.1494C66.9818 46.9939 67.0116 46.8386 67.0772 46.6974L80.3297 21.1125C80.488 20.9246 80.5651 20.6815 80.5441 20.4366C80.5231 20.1918 80.4058 19.9654 80.2178 19.8071C80.0299 19.6489 79.7868 19.5718 79.542 19.5927C79.2972 19.6137 79.0707 19.7311 78.9125 19.919Z" fill="#FBB848"/>
<path d="M41.2438 0.97252L44.4762 7.56145C44.5337 7.67029 44.6149 7.76479 44.7139 7.83796C44.8129 7.91113 44.9271 7.96109 45.048 7.98413L52.3331 9.02842C52.4757 9.04936 52.6096 9.10985 52.7195 9.20304C52.8295 9.29623 52.9111 9.41837 52.9551 9.5556C52.9991 9.69284 53.0038 9.83966 52.9686 9.97941C52.9333 10.1192 52.8596 10.2462 52.7558 10.3462L47.4847 15.4682C47.3997 15.5563 47.3354 15.6623 47.2967 15.7785C47.258 15.8946 47.2458 16.018 47.2609 16.1395L48.5041 23.3749C48.5314 23.5143 48.5184 23.6587 48.4664 23.791C48.4145 23.9233 48.3258 24.038 48.2108 24.1216C48.0959 24.2052 47.9595 24.2542 47.8176 24.2629C47.6757 24.2715 47.5344 24.2395 47.4101 24.1705L40.8958 20.7642C40.7899 20.7031 40.6699 20.6709 40.5477 20.6709C40.4255 20.6709 40.3054 20.7031 40.1996 20.7642L33.6852 24.1705C33.561 24.2395 33.4196 24.2715 33.2777 24.2629C33.1359 24.2542 32.9994 24.2052 32.8845 24.1216C32.7695 24.038 32.6809 23.9233 32.6289 23.791C32.577 23.6587 32.5639 23.5143 32.5912 23.3749L33.8344 16.1395C33.8496 16.018 33.8373 15.8946 33.7986 15.7785C33.7599 15.6623 33.6957 15.5563 33.6106 15.4682L28.3395 10.3462C28.2357 10.2462 28.162 10.1192 28.1268 9.97941C28.0915 9.83966 28.0962 9.69284 28.1402 9.5556C28.1842 9.41837 28.2658 9.29623 28.3758 9.20304C28.4857 9.10985 28.6196 9.04936 28.7622 9.02842L36.0473 8.009C36.1682 7.98595 36.2824 7.936 36.3814 7.86283C36.4804 7.78966 36.5617 7.69515 36.6192 7.58631L39.8515 0.997384C39.9116 0.864561 40.0083 0.751532 40.1301 0.671421C40.2519 0.59131 40.394 0.547404 40.5398 0.544801C40.6856 0.542197 40.8291 0.581003 40.9538 0.656713C41.0784 0.732423 41.179 0.84193 41.2438 0.97252Z" fill="#FBB848"/>
</svg>
