<svg width="81" height="81" viewBox="0 0 81 81" fill="none" xmlns="http://www.w3.org/2000/svg">
<path d="M40.5475 0.630788C35.3246 0.600684 30.1469 1.59964 25.3101 3.57063C20.4733 5.54162 16.0721 8.44603 12.3577 12.118C8.64334 15.79 5.6886 20.1577 3.6622 24.9717C1.6358 29.7856 0.577416 34.9516 0.547485 40.1746V40.6318C0.548001 48.5236 2.88288 56.239 7.25825 62.8068C11.6336 69.3747 17.854 74.5015 25.1364 77.5421C32.4189 80.5826 40.438 81.401 48.1845 79.8943C55.931 78.3875 63.0587 74.6229 68.6706 69.0743C74.2825 63.5257 78.1277 56.4411 79.7223 48.712C81.317 40.9829 80.5898 32.9549 77.6323 25.6382C74.6747 18.3215 69.619 12.0431 63.1015 7.59327C56.5839 3.14343 48.8958 0.72098 41.0046 0.630788H40.5475ZM66.3506 25.3933L57.7411 41.6476C57.7411 42.1556 57.7411 42.1556 58.2491 42.6381H63.3284C63.8618 42.6381 63.8618 42.6381 63.8618 43.1715V43.6794L41.0046 59.883H40.5475L17.3094 43.6794V42.6381H22.8967C22.9608 42.6453 23.0258 42.6388 23.0873 42.6191C23.1487 42.5993 23.2053 42.5668 23.2533 42.5236C23.3013 42.4804 23.3396 42.4276 23.3657 42.3685C23.3917 42.3095 23.405 42.2456 23.4046 42.181L14.7443 25.3933V24.3774H15.7856L36.103 37.5333C36.611 37.5333 36.611 38.0412 37.1443 38.5746L40.1665 45.1525C40.6745 45.1525 40.6745 45.635 41.1824 45.1525L41.6903 44.6445L44.738 38.5746C44.738 38.0412 45.2459 38.0412 45.7284 37.5333L66.0459 23.8948C66.5538 23.8948 66.5538 23.8948 66.5538 24.3774V25.3933H66.3506Z" fill="#F47B67"/>
</svg>
