<svg width="81" height="81" viewBox="0 0 81 81" fill="none" xmlns="http://www.w3.org/2000/svg">
<path d="M79.3474 0.630127H1.74762C1.59002 0.630127 1.43396 0.659007 1.28835 0.715117C1.14274 0.771227 1.01044 0.85347 0.898997 0.957148C0.673928 1.16654 0.547485 1.45053 0.547485 1.74665V51.6094C0.550858 51.7737 0.591475 51.9355 0.666679 52.0841C0.741884 52.2328 0.849981 52.3651 0.983899 52.4722L39.7974 80.3852C40.0103 80.5437 40.2748 80.6301 40.5475 80.6301C40.8202 80.6301 41.0847 80.5437 41.2976 80.3852L80.0838 52.4722C80.2255 52.3698 80.3407 52.2391 80.421 52.0898C80.5012 51.9405 80.5444 51.7763 80.5475 51.6094V1.74665C80.5475 1.45053 80.4211 1.16654 80.196 0.957148C79.9709 0.74776 79.6656 0.630127 79.3474 0.630127ZM68.437 23.2904L59.3269 40.089C59.2472 40.2276 59.2283 40.3896 59.2741 40.5409C59.3198 40.6923 59.4267 40.8213 59.5724 40.901H65.3003C65.3719 40.877 65.4479 40.8665 65.5239 40.8701C65.5999 40.8738 65.6743 40.8915 65.7429 40.9222C65.8115 40.9529 65.8728 40.996 65.9232 41.049C65.9737 41.102 66.0123 41.1638 66.0367 41.2309C66.0908 41.3724 66.0841 41.5279 66.018 41.6649C65.952 41.802 65.8317 41.9101 65.6822 41.9667L40.9157 58.6384C40.8044 58.7128 40.6709 58.7528 40.5338 58.7528C40.3968 58.7528 40.2633 58.7128 40.152 58.6384L15.0855 42.0682C15.01 42.0453 14.9401 42.0087 14.88 41.9604C14.8198 41.9122 14.7705 41.8533 14.735 41.7872C14.6995 41.7211 14.6784 41.6491 14.673 41.5754C14.6677 41.5017 14.6781 41.4277 14.7036 41.3577C14.7253 41.2884 14.7618 41.2239 14.811 41.1682C14.8603 41.1124 14.9212 41.0665 14.99 41.0333C15.0589 41.0001 15.1343 40.9802 15.2117 40.9749C15.289 40.9696 15.3667 40.979 15.4401 41.0025H20.8953C21.0665 40.9897 21.2262 40.9173 21.3425 40.7996C21.4588 40.682 21.5231 40.5279 21.5226 40.3681C21.5506 40.2769 21.5506 40.1802 21.5226 40.089L12.5488 23.2904C12.489 23.158 12.4838 23.0098 12.5341 22.874C12.5844 22.7382 12.6868 22.6245 12.8216 22.5545C12.9273 22.4911 13.0504 22.4574 13.1762 22.4574C13.302 22.4574 13.4251 22.4911 13.5308 22.5545L35.6788 36.0796C36.0635 36.3305 36.3808 36.6604 36.6061 37.0439L39.9611 43.3624C40.0084 43.4351 40.071 43.4981 40.145 43.5479C40.2191 43.5976 40.3032 43.633 40.3922 43.6519C40.4812 43.6708 40.5735 43.6729 40.6634 43.6581C40.7533 43.6432 40.8391 43.6117 40.9157 43.5654C41.0016 43.5112 41.0757 43.4423 41.1339 43.3624L44.4888 37.0439C44.7047 36.6621 45.0128 36.332 45.3889 36.0796L67.5642 22.5545C67.6903 22.4457 67.8559 22.3853 68.0279 22.3853C68.1999 22.3853 68.3655 22.4457 68.4916 22.5545C68.5444 22.653 68.5719 22.7616 68.5719 22.8717C68.5719 22.9818 68.5444 23.0904 68.4916 23.1889L68.437 23.2904Z" fill="#9C84EF"/>
</svg>
