<svg width="81" height="81" viewBox="0 0 81 81" fill="none" xmlns="http://www.w3.org/2000/svg">
<path d="M34.1195 46.0072L35.6357 36.3028H47.2525L45.7363 46.0072H34.1195Z" fill="#1ABC9C"/>
<path fill-rule="evenodd" clip-rule="evenodd" d="M40.5475 80.8407C62.6388 80.8407 80.5475 62.9321 80.5475 40.8407C80.5475 18.7493 62.6388 0.840668 40.5475 0.840668C18.4562 0.840668 0.547485 18.7493 0.547485 40.8407C0.547485 62.9321 18.4562 80.8407 40.5475 80.8407ZM37.633 23.5203C37.8854 21.9035 36.7794 20.3881 35.1626 20.1354C33.5459 19.8828 32.0304 20.9887 31.778 22.6055L30.5641 30.3769H23.3043C21.668 30.3769 20.3413 31.7035 20.3413 33.3399C20.3413 34.9763 21.668 36.3028 23.3043 36.3028H29.6382L28.122 46.0072H21.5732C19.937 46.0072 18.6103 47.3337 18.6103 48.9701C18.6103 50.6065 19.937 51.9331 21.5732 51.9331H27.1961L26.1653 58.5286C25.9128 60.1454 27.0188 61.6608 28.6356 61.9134C30.2523 62.166 31.7678 61.0601 32.0203 59.4434L33.1936 51.9331H44.8104L43.7795 58.5286C43.5271 60.1454 44.6331 61.6608 46.2499 61.9134C47.8666 62.166 49.3821 61.0601 49.6346 59.4434L50.8079 51.9331H57.9325C59.5687 51.9331 60.8954 50.6065 60.8954 48.9701C60.8954 47.3337 59.5687 46.0072 57.9325 46.0072H51.7338L53.25 36.3028H59.6635C61.2998 36.3028 62.6265 34.9763 62.6265 33.3399C62.6265 31.7035 61.2998 30.3769 59.6635 30.3769H54.176L55.2473 23.5203C55.4997 21.9035 54.3937 20.3881 52.7769 20.1354C51.1602 19.8828 49.6447 20.9887 49.3922 22.6055L48.1784 30.3769H36.5617L37.633 23.5203Z" fill="#1ABC9C"/>
</svg>
