<svg width="81" height="52" viewBox="0 0 81 52" fill="none" xmlns="http://www.w3.org/2000/svg">
<path d="M59.7055 12.8711L49.4967 19.3803C48.0385 20.1036 47.3092 20.1036 45.8507 19.3803C45.1215 18.6571 43.6632 17.9338 42.934 17.2106C40.0172 16.4873 37.8297 17.2106 35.642 18.6571L31.996 20.8268L13.7662 33.1223C9.39108 35.292 4.28671 34.5688 2.09913 30.229C-0.817646 26.6128 0.640743 21.5501 4.28671 18.6571L26.1625 4.19192C31.996 0.575618 39.288 -0.87088 45.8507 0.575619C51.6842 2.02214 56.0595 4.91517 59.7055 9.25471C61.164 10.7013 60.4347 12.1478 59.7055 12.8711Z" fill="#5865F2"/>
<path d="M80.5475 25.5667C80.5475 28.4425 79.0915 31.3185 76.9072 32.7565L54.3385 47.1357C49.9703 50.0115 45.602 51.4495 40.5058 51.4495C38.3218 51.4495 36.8658 51.4495 34.6815 50.7305C28.8575 49.2927 24.4892 46.4167 20.8491 42.103C20.121 40.665 20.8491 39.227 21.5771 38.5082L31.7695 32.0375C32.4975 31.3185 33.9535 31.3185 34.6815 32.0375C36.1378 32.7565 37.5938 33.4755 38.3218 34.1942C41.234 34.1942 43.418 34.1942 45.602 32.7565L50.6983 29.8805L65.2588 19.815L67.443 18.377C71.083 16.2203 76.9072 16.9393 79.0915 20.534C80.5475 22.691 80.5475 24.1287 80.5475 25.5667Z" fill="#5865F2"/>
</svg>
