<svg width="178" height="48" viewBox="0 0 178 48" fill="none" xmlns="http://www.w3.org/2000/svg">
<rect x="0.0474854" y="0.607422" width="177.524" height="47" rx="8" fill="#5865F2"/>
<g clip-path="url(#clip0_608_343)">
<path d="M23.4343 35.2871L12.8093 27.3184L15.9343 23.0684L22.1843 27.8496L33.5593 12.8809L37.8093 16.0059L23.4343 35.2871Z" fill="white"/>
</g>
<path d="M54.8141 35.0362C50.9549 35.0362 48.1779 33.6477 46.4832 30.8707L49.7298 28.0836C50.4036 29.1453 51.1387 29.9315 51.935 30.4419C52.7314 30.932 53.6808 31.177 54.7835 31.177C55.8861 31.177 56.7437 30.9626 57.3563 30.5338C57.9688 30.105 58.2751 29.472 58.2751 28.6349C58.2751 27.7773 57.9178 27.1341 57.2031 26.7053C56.5089 26.2765 55.3858 25.9089 53.834 25.6027C51.9963 25.2351 50.4546 24.5511 49.2091 23.5505C47.9839 22.55 47.3714 21.1513 47.3714 19.3544C47.3714 18.0885 47.6981 16.9756 48.3515 16.0159C49.0049 15.0562 49.9033 14.3212 51.0468 13.8107C52.2107 13.3002 53.5277 13.045 54.9979 13.045C56.8152 13.045 58.3262 13.4125 59.5309 14.1476C60.7356 14.8623 61.7361 15.8322 62.5325 17.0573L59.439 19.5688C58.806 18.5683 58.1424 17.8536 57.4481 17.4248C56.7539 16.996 55.9371 16.7817 54.9979 16.7817C53.9361 16.7817 53.1193 16.9858 52.5476 17.3942C51.9963 17.8026 51.7206 18.3539 51.7206 19.0482C51.7206 19.5995 51.884 20.0487 52.2107 20.3958C52.5374 20.7225 52.9866 20.9982 53.5583 21.2228C54.1301 21.427 54.9264 21.6516 55.9474 21.8966C57.3971 22.2437 58.5916 22.6317 59.5309 23.0605C60.4702 23.4893 61.2257 24.1121 61.7974 24.9288C62.3895 25.7456 62.6856 26.838 62.6856 28.2061C62.6856 30.4113 61.9709 32.1061 60.5416 33.2904C59.1123 34.4543 57.2031 35.0362 54.8141 35.0362ZM75.0121 34.6074H70.5404V25.8783L63.5265 13.4738H68.4576L72.7763 21.5903L77.0949 13.4738H82.0261L75.0121 25.8783V34.6074ZM91.4546 35.0362C87.5954 35.0362 84.8184 33.6477 83.1237 30.8707L86.3703 28.0836C87.0441 29.1453 87.7792 29.9315 88.5755 30.4419C89.3719 30.932 90.3213 31.177 91.424 31.177C92.5266 31.177 93.3842 30.9626 93.9968 30.5338C94.6093 30.105 94.9156 29.472 94.9156 28.6349C94.9156 27.7773 94.5583 27.1341 93.8436 26.7053C93.1494 26.2765 92.0263 25.9089 90.4745 25.6027C88.6368 25.2351 87.0951 24.5511 85.8496 23.5505C84.6245 22.55 84.0119 21.1513 84.0119 19.3544C84.0119 18.0885 84.3386 16.9756 84.992 16.0159C85.6454 15.0562 86.5438 14.3212 87.6873 13.8107C88.8512 13.3002 90.1682 13.045 91.6384 13.045C93.4557 13.045 94.9667 13.4125 96.1714 14.1476C97.3761 14.8623 98.3766 15.8322 99.173 17.0573L96.0795 19.5688C95.4465 18.5683 94.7829 17.8536 94.0886 17.4248C93.3944 16.996 92.5776 16.7817 91.6384 16.7817C90.5766 16.7817 89.7598 16.9858 89.1881 17.3942C88.6368 17.8026 88.3611 18.3539 88.3611 19.0482C88.3611 19.5995 88.5245 20.0487 88.8512 20.3958C89.1779 20.7225 89.6271 20.9982 90.1988 21.2228C90.7706 21.427 91.5669 21.6516 92.5879 21.8966C94.0376 22.2437 95.2321 22.6317 96.1714 23.0605C97.1107 23.4893 97.8662 24.1121 98.4379 24.9288C99.03 25.7456 99.3261 26.838 99.3261 28.2061C99.3261 30.4113 98.6115 32.1061 97.1821 33.2904C95.7528 34.4543 93.8436 35.0362 91.4546 35.0362ZM111.942 34.6074H107.471V17.5167H101.345V13.4738H118.068V17.5167H111.942V34.6074ZM135.662 34.6074H121.145V13.4738H135.448V17.5167H125.616V21.6822H133.947V25.7252H125.616V30.5645H135.662V34.6074ZM143.009 34.6074H138.446L140.773 13.4738H147.236L150.574 26.0621L153.913 13.4738H160.192L162.52 34.6074H157.956L156.425 18.9869L152.81 31.5446H148.155L144.51 18.9869L143.009 34.6074Z" fill="white"/>
<defs>
<clipPath id="clip0_608_343">
<rect width="25" height="25" fill="white" transform="translate(12.8093 11.6074)"/>
</clipPath>
</defs>
</svg>
