<svg width="119" height="48" viewBox="0 0 119 48" fill="none" xmlns="http://www.w3.org/2000/svg">
<rect x="0.523743" y="0.607422" width="117.524" height="47" rx="8" fill="#5865F2"/>
<g clip-path="url(#clip0_608_341)">
<path d="M23.9106 35.2871L13.2856 27.3184L16.4106 23.0684L22.6606 27.8496L34.0356 12.8809L38.2856 16.0059L23.9106 35.2871Z" fill="white"/>
</g>
<path d="M48.4296 34.6074V13.4738H57.7713C59.4865 13.4738 60.8647 13.9638 61.9061 14.9439C62.9679 15.9241 63.4988 17.2207 63.4988 18.8338C63.4988 20.0997 63.1925 21.1207 62.5799 21.8966C61.9878 22.6521 61.2016 23.2034 60.2215 23.5505C61.4671 23.816 62.4472 24.3775 63.1619 25.2351C63.897 26.0723 64.2645 27.2464 64.2645 28.7574C64.2645 30.7176 63.6723 32.1878 62.488 33.1679C61.3037 34.1276 59.6294 34.6074 57.465 34.6074H48.4296ZM56.1786 21.9272C58.1184 21.9272 59.0883 21.1513 59.0883 19.5995C59.0883 18.0476 58.1184 17.2717 56.1786 17.2717H52.9013V21.9272H56.1786ZM56.393 30.8095C58.6595 30.8095 59.7927 29.9621 59.7927 28.2673C59.7927 26.5726 58.6595 25.7252 56.393 25.7252H52.9013V30.8095H56.393ZM75.9134 35.0362C73.994 35.0362 72.2992 34.5972 70.829 33.7192C69.3589 32.8412 68.2154 31.5752 67.3987 29.9213C66.5819 28.2469 66.1735 26.2867 66.1735 24.0406C66.1735 21.7945 66.5819 19.8445 67.3987 18.1906C68.2154 16.5162 69.3589 15.24 70.829 14.362C72.2992 13.484 73.994 13.045 75.9134 13.045C77.8328 13.045 79.5275 13.484 80.9977 14.362C82.4679 15.24 83.6113 16.5162 84.4281 18.1906C85.2448 19.8445 85.6532 21.7945 85.6532 24.0406C85.6532 26.2867 85.2448 28.2469 84.4281 29.9213C83.6113 31.5752 82.4679 32.8412 80.9977 33.7192C79.5275 34.5972 77.8328 35.0362 75.9134 35.0362ZM75.9134 30.9933C77.6286 30.9933 78.9354 30.4011 79.8338 29.2168C80.7322 28.0121 81.1815 26.2867 81.1815 24.0406C81.1815 21.7945 80.7322 20.0793 79.8338 18.895C78.9354 17.6903 77.6286 17.0879 75.9134 17.0879C74.1982 17.0879 72.8914 17.6903 71.9929 18.895C71.0945 20.0793 70.6453 21.7945 70.6453 24.0406C70.6453 26.2867 71.0945 28.0121 71.9929 29.2168C72.8914 30.4011 74.1982 30.9933 75.9134 30.9933ZM97.583 34.6074H93.1113V17.5167H86.9856V13.4738H103.709V17.5167H97.583V34.6074Z" fill="white"/>
<defs>
<clipPath id="clip0_608_341">
<rect width="25" height="25" fill="white" transform="translate(13.2856 11.6074)"/>
</clipPath>
</defs>
</svg>
